<mxfile host="app.diagrams.net" modified="2023-10-07T06:28:11.984Z" agent="Mozilla/5.0 (Windows NT 10.0; Win64; x64) AppleWebKit/537.36 (KHTML, like Gecko) Chrome/117.0.0.0 Safari/537.36" etag="e-s8LYzykIx9_dserVsR" version="22.0.4" type="device">
  <diagram id="R2lEEEUBdFMjLlhIrx00" name="Page-1">
    <mxGraphModel dx="880" dy="460" grid="1" gridSize="10" guides="1" tooltips="1" connect="1" arrows="1" fold="1" page="1" pageScale="1" pageWidth="850" pageHeight="1100" math="0" shadow="0" extFonts="Permanent Marker^https://fonts.googleapis.com/css?family=Permanent+Marker">
      <root>
        <mxCell id="0" />
        <mxCell id="1" parent="0" />
        <mxCell id="cqz4s_2zo4BMZqUi2qew-4" value="&lt;b&gt;&lt;font style=&quot;font-size: 14px;&quot;&gt;Users&lt;/font&gt;&lt;/b&gt;" style="rounded=0;whiteSpace=wrap;html=1;" vertex="1" parent="1">
          <mxGeometry x="100" y="162" width="140" height="38" as="geometry" />
        </mxCell>
        <mxCell id="cqz4s_2zo4BMZqUi2qew-5" value="&lt;b style=&quot;font-size: 13px;&quot;&gt;&lt;u style=&quot;font-size: 13px;&quot;&gt;user_id&lt;/u&gt;&lt;/b&gt;" style="ellipse;whiteSpace=wrap;html=1;fontSize=13;" vertex="1" parent="1">
          <mxGeometry y="90" width="80" height="40" as="geometry" />
        </mxCell>
        <mxCell id="cqz4s_2zo4BMZqUi2qew-6" value="username" style="ellipse;whiteSpace=wrap;html=1;fontSize=13;" vertex="1" parent="1">
          <mxGeometry x="80" y="30" width="80" height="40" as="geometry" />
        </mxCell>
        <mxCell id="cqz4s_2zo4BMZqUi2qew-7" value="email" style="ellipse;whiteSpace=wrap;html=1;fontSize=13;" vertex="1" parent="1">
          <mxGeometry x="180" y="30" width="80" height="40" as="geometry" />
        </mxCell>
        <mxCell id="cqz4s_2zo4BMZqUi2qew-8" value="password" style="ellipse;whiteSpace=wrap;html=1;fontSize=13;" vertex="1" parent="1">
          <mxGeometry x="260" y="90" width="80" height="40" as="geometry" />
        </mxCell>
        <mxCell id="cqz4s_2zo4BMZqUi2qew-9" value="private_key" style="ellipse;whiteSpace=wrap;html=1;fontSize=13;" vertex="1" parent="1">
          <mxGeometry x="570" y="40" width="80" height="40" as="geometry" />
        </mxCell>
        <mxCell id="cqz4s_2zo4BMZqUi2qew-10" value="&lt;b&gt;&lt;font style=&quot;font-size: 16px;&quot;&gt;UserInfo&lt;/font&gt;&lt;/b&gt;" style="rounded=0;whiteSpace=wrap;html=1;" vertex="1" parent="1">
          <mxGeometry x="470" y="161" width="140" height="39" as="geometry" />
        </mxCell>
        <mxCell id="cqz4s_2zo4BMZqUi2qew-11" value="address" style="ellipse;whiteSpace=wrap;html=1;fontSize=13;" vertex="1" parent="1">
          <mxGeometry x="690" y="175" width="80" height="40" as="geometry" />
        </mxCell>
        <mxCell id="cqz4s_2zo4BMZqUi2qew-12" value="&lt;b&gt;&lt;font style=&quot;font-size: 16px;&quot;&gt; UserWalletDetails&lt;/font&gt;&lt;/b&gt;" style="rounded=0;whiteSpace=wrap;html=1;" vertex="1" parent="1">
          <mxGeometry x="470" y="360" width="140" height="40" as="geometry" />
        </mxCell>
        <mxCell id="cqz4s_2zo4BMZqUi2qew-13" value="&lt;b style=&quot;font-size: 13px;&quot;&gt;&lt;u style=&quot;font-size: 13px;&quot;&gt;userinfo_id&lt;/u&gt;&lt;/b&gt;" style="ellipse;whiteSpace=wrap;html=1;fontSize=13;" vertex="1" parent="1">
          <mxGeometry x="460" y="40" width="80" height="40" as="geometry" />
        </mxCell>
        <mxCell id="cqz4s_2zo4BMZqUi2qew-14" value="public_key" style="ellipse;whiteSpace=wrap;html=1;fontSize=13;" vertex="1" parent="1">
          <mxGeometry x="670" y="90" width="80" height="40" as="geometry" />
        </mxCell>
        <mxCell id="cqz4s_2zo4BMZqUi2qew-15" value="balance1" style="ellipse;whiteSpace=wrap;html=1;fontSize=13;" vertex="1" parent="1">
          <mxGeometry x="690" y="430" width="80" height="40" as="geometry" />
        </mxCell>
        <mxCell id="cqz4s_2zo4BMZqUi2qew-16" value="balance" style="ellipse;whiteSpace=wrap;html=1;fontSize=13;" vertex="1" parent="1">
          <mxGeometry x="690" y="380" width="80" height="40" as="geometry" />
        </mxCell>
        <mxCell id="cqz4s_2zo4BMZqUi2qew-17" value="&lt;b style=&quot;font-size: 13px;&quot;&gt;&lt;u style=&quot;font-size: 13px;&quot;&gt;userwalletdetails_id&lt;/u&gt;&lt;/b&gt;" style="ellipse;whiteSpace=wrap;html=1;fontSize=13;" vertex="1" parent="1">
          <mxGeometry x="680" y="310" width="130" height="50" as="geometry" />
        </mxCell>
        <mxCell id="cqz4s_2zo4BMZqUi2qew-18" value="transactions" style="ellipse;whiteSpace=wrap;html=1;fontSize=13;" vertex="1" parent="1">
          <mxGeometry x="670" y="480" width="80" height="40" as="geometry" />
        </mxCell>
        <mxCell id="cqz4s_2zo4BMZqUi2qew-19" value="total_sent" style="ellipse;whiteSpace=wrap;html=1;fontSize=13;" vertex="1" parent="1">
          <mxGeometry x="610" y="520" width="80" height="40" as="geometry" />
        </mxCell>
        <mxCell id="cqz4s_2zo4BMZqUi2qew-20" value="total_sent1" style="ellipse;whiteSpace=wrap;html=1;fontSize=13;" vertex="1" parent="1">
          <mxGeometry x="520" y="500" width="80" height="40" as="geometry" />
        </mxCell>
        <mxCell id="cqz4s_2zo4BMZqUi2qew-21" value="total_received" style="ellipse;whiteSpace=wrap;html=1;fontSize=13;" vertex="1" parent="1">
          <mxGeometry x="350" y="490" width="90" height="40" as="geometry" />
        </mxCell>
        <mxCell id="cqz4s_2zo4BMZqUi2qew-22" value="total_received1" style="ellipse;whiteSpace=wrap;html=1;fontSize=13;" vertex="1" parent="1">
          <mxGeometry x="430" y="530" width="100" height="40" as="geometry" />
        </mxCell>
        <mxCell id="cqz4s_2zo4BMZqUi2qew-23" value="live_bitcoin_price" style="ellipse;whiteSpace=wrap;html=1;fontSize=13;" vertex="1" parent="1">
          <mxGeometry x="300" y="290" width="110" height="40" as="geometry" />
        </mxCell>
        <mxCell id="cqz4s_2zo4BMZqUi2qew-24" value="balance_usd" style="ellipse;whiteSpace=wrap;html=1;fontSize=13;" vertex="1" parent="1">
          <mxGeometry x="265" y="340" width="90" height="40" as="geometry" />
        </mxCell>
        <mxCell id="cqz4s_2zo4BMZqUi2qew-25" value="total_sent_usd" style="ellipse;whiteSpace=wrap;html=1;fontSize=13;" vertex="1" parent="1">
          <mxGeometry x="260" y="395" width="100" height="35" as="geometry" />
        </mxCell>
        <mxCell id="cqz4s_2zo4BMZqUi2qew-26" value="total_received_usd" style="ellipse;whiteSpace=wrap;html=1;fontSize=13;" vertex="1" parent="1">
          <mxGeometry x="260" y="440" width="120" height="40" as="geometry" />
        </mxCell>
        <mxCell id="cqz4s_2zo4BMZqUi2qew-28" value="has" style="rhombus;whiteSpace=wrap;html=1;fontSize=14;" vertex="1" parent="1">
          <mxGeometry x="320" y="158.5" width="80" height="44.5" as="geometry" />
        </mxCell>
        <mxCell id="cqz4s_2zo4BMZqUi2qew-29" value="has" style="rhombus;whiteSpace=wrap;html=1;fontSize=14;" vertex="1" parent="1">
          <mxGeometry x="505" y="261" width="70" height="40" as="geometry" />
        </mxCell>
        <mxCell id="cqz4s_2zo4BMZqUi2qew-30" value="" style="endArrow=none;html=1;rounded=0;exitX=1;exitY=0.5;exitDx=0;exitDy=0;entryX=0;entryY=0;entryDx=0;entryDy=0;" edge="1" parent="1" source="cqz4s_2zo4BMZqUi2qew-5" target="cqz4s_2zo4BMZqUi2qew-4">
          <mxGeometry width="50" height="50" relative="1" as="geometry">
            <mxPoint x="40" y="330" as="sourcePoint" />
            <mxPoint x="110" y="140" as="targetPoint" />
          </mxGeometry>
        </mxCell>
        <mxCell id="cqz4s_2zo4BMZqUi2qew-31" value="" style="endArrow=none;html=1;rounded=0;exitX=0.5;exitY=1;exitDx=0;exitDy=0;entryX=0.75;entryY=0;entryDx=0;entryDy=0;" edge="1" parent="1" source="cqz4s_2zo4BMZqUi2qew-7" target="cqz4s_2zo4BMZqUi2qew-4">
          <mxGeometry width="50" height="50" relative="1" as="geometry">
            <mxPoint x="390" y="156.5" as="sourcePoint" />
            <mxPoint x="440" y="106.5" as="targetPoint" />
          </mxGeometry>
        </mxCell>
        <mxCell id="cqz4s_2zo4BMZqUi2qew-32" value="" style="endArrow=none;html=1;rounded=0;exitX=0.5;exitY=1;exitDx=0;exitDy=0;entryX=0.25;entryY=0;entryDx=0;entryDy=0;" edge="1" parent="1" source="cqz4s_2zo4BMZqUi2qew-6" target="cqz4s_2zo4BMZqUi2qew-4">
          <mxGeometry width="50" height="50" relative="1" as="geometry">
            <mxPoint x="375" y="135" as="sourcePoint" />
            <mxPoint x="425" y="85" as="targetPoint" />
          </mxGeometry>
        </mxCell>
        <mxCell id="cqz4s_2zo4BMZqUi2qew-33" value="" style="endArrow=none;html=1;rounded=0;exitX=0;exitY=0.5;exitDx=0;exitDy=0;entryX=1;entryY=0;entryDx=0;entryDy=0;" edge="1" parent="1" source="cqz4s_2zo4BMZqUi2qew-8" target="cqz4s_2zo4BMZqUi2qew-4">
          <mxGeometry width="50" height="50" relative="1" as="geometry">
            <mxPoint x="400" y="190" as="sourcePoint" />
            <mxPoint x="450" y="140" as="targetPoint" />
          </mxGeometry>
        </mxCell>
        <mxCell id="cqz4s_2zo4BMZqUi2qew-35" value="" style="endArrow=none;html=1;rounded=0;exitX=1;exitY=0.5;exitDx=0;exitDy=0;entryX=0;entryY=0.5;entryDx=0;entryDy=0;" edge="1" parent="1" source="cqz4s_2zo4BMZqUi2qew-28" target="cqz4s_2zo4BMZqUi2qew-10">
          <mxGeometry width="50" height="50" relative="1" as="geometry">
            <mxPoint x="400" y="190" as="sourcePoint" />
            <mxPoint x="450" y="140" as="targetPoint" />
          </mxGeometry>
        </mxCell>
        <mxCell id="cqz4s_2zo4BMZqUi2qew-36" value="" style="endArrow=none;html=1;rounded=0;entryX=0.5;entryY=1;entryDx=0;entryDy=0;exitX=0.5;exitY=0;exitDx=0;exitDy=0;" edge="1" parent="1" source="cqz4s_2zo4BMZqUi2qew-29" target="cqz4s_2zo4BMZqUi2qew-10">
          <mxGeometry width="50" height="50" relative="1" as="geometry">
            <mxPoint x="400" y="190" as="sourcePoint" />
            <mxPoint x="450" y="140" as="targetPoint" />
          </mxGeometry>
        </mxCell>
        <mxCell id="cqz4s_2zo4BMZqUi2qew-37" style="edgeStyle=orthogonalEdgeStyle;rounded=0;orthogonalLoop=1;jettySize=auto;html=1;exitX=0.5;exitY=1;exitDx=0;exitDy=0;" edge="1" parent="1" source="cqz4s_2zo4BMZqUi2qew-29" target="cqz4s_2zo4BMZqUi2qew-29">
          <mxGeometry relative="1" as="geometry" />
        </mxCell>
        <mxCell id="cqz4s_2zo4BMZqUi2qew-38" value="" style="endArrow=none;html=1;rounded=0;entryX=0.5;entryY=1;entryDx=0;entryDy=0;exitX=0.5;exitY=0;exitDx=0;exitDy=0;" edge="1" parent="1" source="cqz4s_2zo4BMZqUi2qew-12" target="cqz4s_2zo4BMZqUi2qew-29">
          <mxGeometry width="50" height="50" relative="1" as="geometry">
            <mxPoint x="400" y="190" as="sourcePoint" />
            <mxPoint x="450" y="140" as="targetPoint" />
          </mxGeometry>
        </mxCell>
        <mxCell id="cqz4s_2zo4BMZqUi2qew-45" value="" style="edgeStyle=entityRelationEdgeStyle;fontSize=12;html=1;endArrow=ERmandOne;rounded=0;entryX=1;entryY=0.5;entryDx=0;entryDy=0;exitX=0;exitY=0.5;exitDx=0;exitDy=0;" edge="1" parent="1" source="cqz4s_2zo4BMZqUi2qew-28" target="cqz4s_2zo4BMZqUi2qew-4">
          <mxGeometry width="100" height="100" relative="1" as="geometry">
            <mxPoint x="370" y="290" as="sourcePoint" />
            <mxPoint x="470" y="190" as="targetPoint" />
          </mxGeometry>
        </mxCell>
        <mxCell id="cqz4s_2zo4BMZqUi2qew-50" value="" style="endArrow=none;html=1;rounded=0;entryX=0;entryY=1;entryDx=0;entryDy=0;exitX=1;exitY=0;exitDx=0;exitDy=0;" edge="1" parent="1" source="cqz4s_2zo4BMZqUi2qew-10" target="cqz4s_2zo4BMZqUi2qew-14">
          <mxGeometry width="50" height="50" relative="1" as="geometry">
            <mxPoint x="400" y="250" as="sourcePoint" />
            <mxPoint x="450" y="200" as="targetPoint" />
          </mxGeometry>
        </mxCell>
        <mxCell id="cqz4s_2zo4BMZqUi2qew-51" value="" style="endArrow=none;html=1;rounded=0;entryX=0;entryY=0.5;entryDx=0;entryDy=0;exitX=1;exitY=0.5;exitDx=0;exitDy=0;" edge="1" parent="1" source="cqz4s_2zo4BMZqUi2qew-10" target="cqz4s_2zo4BMZqUi2qew-11">
          <mxGeometry width="50" height="50" relative="1" as="geometry">
            <mxPoint x="400" y="250" as="sourcePoint" />
            <mxPoint x="450" y="200" as="targetPoint" />
          </mxGeometry>
        </mxCell>
        <mxCell id="cqz4s_2zo4BMZqUi2qew-53" value="" style="endArrow=none;html=1;rounded=0;entryX=0.5;entryY=1;entryDx=0;entryDy=0;exitX=0.5;exitY=0;exitDx=0;exitDy=0;" edge="1" parent="1" source="cqz4s_2zo4BMZqUi2qew-10" target="cqz4s_2zo4BMZqUi2qew-13">
          <mxGeometry width="50" height="50" relative="1" as="geometry">
            <mxPoint x="400" y="250" as="sourcePoint" />
            <mxPoint x="450" y="200" as="targetPoint" />
          </mxGeometry>
        </mxCell>
        <mxCell id="cqz4s_2zo4BMZqUi2qew-54" value="" style="endArrow=none;html=1;rounded=0;entryX=0.5;entryY=1;entryDx=0;entryDy=0;exitX=0.75;exitY=0;exitDx=0;exitDy=0;" edge="1" parent="1" source="cqz4s_2zo4BMZqUi2qew-10" target="cqz4s_2zo4BMZqUi2qew-9">
          <mxGeometry width="50" height="50" relative="1" as="geometry">
            <mxPoint x="400" y="250" as="sourcePoint" />
            <mxPoint x="450" y="200" as="targetPoint" />
          </mxGeometry>
        </mxCell>
        <mxCell id="cqz4s_2zo4BMZqUi2qew-57" value="" style="endArrow=none;html=1;rounded=0;entryX=1;entryY=0;entryDx=0;entryDy=0;exitX=0;exitY=0.5;exitDx=0;exitDy=0;" edge="1" parent="1" source="cqz4s_2zo4BMZqUi2qew-17" target="cqz4s_2zo4BMZqUi2qew-12">
          <mxGeometry width="50" height="50" relative="1" as="geometry">
            <mxPoint x="400" y="390" as="sourcePoint" />
            <mxPoint x="450" y="340" as="targetPoint" />
          </mxGeometry>
        </mxCell>
        <mxCell id="cqz4s_2zo4BMZqUi2qew-58" value="" style="endArrow=none;html=1;rounded=0;entryX=1;entryY=0.5;entryDx=0;entryDy=0;exitX=0;exitY=0.5;exitDx=0;exitDy=0;" edge="1" parent="1" source="cqz4s_2zo4BMZqUi2qew-16" target="cqz4s_2zo4BMZqUi2qew-12">
          <mxGeometry width="50" height="50" relative="1" as="geometry">
            <mxPoint x="400" y="390" as="sourcePoint" />
            <mxPoint x="450" y="340" as="targetPoint" />
          </mxGeometry>
        </mxCell>
        <mxCell id="cqz4s_2zo4BMZqUi2qew-59" value="" style="endArrow=none;html=1;rounded=0;entryX=1;entryY=1;entryDx=0;entryDy=0;exitX=0.038;exitY=0.35;exitDx=0;exitDy=0;exitPerimeter=0;" edge="1" parent="1" source="cqz4s_2zo4BMZqUi2qew-15" target="cqz4s_2zo4BMZqUi2qew-12">
          <mxGeometry width="50" height="50" relative="1" as="geometry">
            <mxPoint x="400" y="390" as="sourcePoint" />
            <mxPoint x="450" y="340" as="targetPoint" />
          </mxGeometry>
        </mxCell>
        <mxCell id="cqz4s_2zo4BMZqUi2qew-60" value="" style="endArrow=none;html=1;rounded=0;entryX=0.95;entryY=0.975;entryDx=0;entryDy=0;entryPerimeter=0;exitX=0;exitY=0;exitDx=0;exitDy=0;" edge="1" parent="1" source="cqz4s_2zo4BMZqUi2qew-18" target="cqz4s_2zo4BMZqUi2qew-12">
          <mxGeometry width="50" height="50" relative="1" as="geometry">
            <mxPoint x="400" y="390" as="sourcePoint" />
            <mxPoint x="450" y="340" as="targetPoint" />
          </mxGeometry>
        </mxCell>
        <mxCell id="cqz4s_2zo4BMZqUi2qew-61" value="" style="endArrow=none;html=1;rounded=0;entryX=0.886;entryY=0.975;entryDx=0;entryDy=0;entryPerimeter=0;exitX=0.5;exitY=0;exitDx=0;exitDy=0;" edge="1" parent="1" source="cqz4s_2zo4BMZqUi2qew-19" target="cqz4s_2zo4BMZqUi2qew-12">
          <mxGeometry width="50" height="50" relative="1" as="geometry">
            <mxPoint x="400" y="390" as="sourcePoint" />
            <mxPoint x="450" y="340" as="targetPoint" />
          </mxGeometry>
        </mxCell>
        <mxCell id="cqz4s_2zo4BMZqUi2qew-62" value="" style="endArrow=none;html=1;rounded=0;entryX=0.75;entryY=1;entryDx=0;entryDy=0;exitX=0.5;exitY=0;exitDx=0;exitDy=0;" edge="1" parent="1" source="cqz4s_2zo4BMZqUi2qew-20" target="cqz4s_2zo4BMZqUi2qew-12">
          <mxGeometry width="50" height="50" relative="1" as="geometry">
            <mxPoint x="400" y="390" as="sourcePoint" />
            <mxPoint x="450" y="340" as="targetPoint" />
          </mxGeometry>
        </mxCell>
        <mxCell id="cqz4s_2zo4BMZqUi2qew-63" value="" style="endArrow=none;html=1;rounded=0;entryX=0.5;entryY=1;entryDx=0;entryDy=0;exitX=0.5;exitY=0;exitDx=0;exitDy=0;" edge="1" parent="1" source="cqz4s_2zo4BMZqUi2qew-22" target="cqz4s_2zo4BMZqUi2qew-12">
          <mxGeometry width="50" height="50" relative="1" as="geometry">
            <mxPoint x="400" y="390" as="sourcePoint" />
            <mxPoint x="450" y="340" as="targetPoint" />
          </mxGeometry>
        </mxCell>
        <mxCell id="cqz4s_2zo4BMZqUi2qew-64" value="" style="endArrow=none;html=1;rounded=0;entryX=0.25;entryY=1;entryDx=0;entryDy=0;exitX=1;exitY=0;exitDx=0;exitDy=0;" edge="1" parent="1" source="cqz4s_2zo4BMZqUi2qew-21" target="cqz4s_2zo4BMZqUi2qew-12">
          <mxGeometry width="50" height="50" relative="1" as="geometry">
            <mxPoint x="400" y="390" as="sourcePoint" />
            <mxPoint x="450" y="340" as="targetPoint" />
          </mxGeometry>
        </mxCell>
        <mxCell id="cqz4s_2zo4BMZqUi2qew-65" value="" style="endArrow=none;html=1;rounded=0;entryX=0;entryY=1;entryDx=0;entryDy=0;exitX=1;exitY=0.5;exitDx=0;exitDy=0;" edge="1" parent="1" source="cqz4s_2zo4BMZqUi2qew-26" target="cqz4s_2zo4BMZqUi2qew-12">
          <mxGeometry width="50" height="50" relative="1" as="geometry">
            <mxPoint x="400" y="390" as="sourcePoint" />
            <mxPoint x="450" y="340" as="targetPoint" />
          </mxGeometry>
        </mxCell>
        <mxCell id="cqz4s_2zo4BMZqUi2qew-66" value="" style="endArrow=none;html=1;rounded=0;entryX=0;entryY=0.75;entryDx=0;entryDy=0;exitX=1;exitY=0.5;exitDx=0;exitDy=0;" edge="1" parent="1" source="cqz4s_2zo4BMZqUi2qew-25" target="cqz4s_2zo4BMZqUi2qew-12">
          <mxGeometry width="50" height="50" relative="1" as="geometry">
            <mxPoint x="400" y="390" as="sourcePoint" />
            <mxPoint x="450" y="340" as="targetPoint" />
          </mxGeometry>
        </mxCell>
        <mxCell id="cqz4s_2zo4BMZqUi2qew-67" value="" style="endArrow=none;html=1;rounded=0;entryX=0;entryY=0.5;entryDx=0;entryDy=0;exitX=1;exitY=0.5;exitDx=0;exitDy=0;" edge="1" parent="1" source="cqz4s_2zo4BMZqUi2qew-24" target="cqz4s_2zo4BMZqUi2qew-12">
          <mxGeometry width="50" height="50" relative="1" as="geometry">
            <mxPoint x="400" y="390" as="sourcePoint" />
            <mxPoint x="450" y="340" as="targetPoint" />
          </mxGeometry>
        </mxCell>
        <mxCell id="cqz4s_2zo4BMZqUi2qew-68" value="" style="endArrow=none;html=1;rounded=0;entryX=0;entryY=0;entryDx=0;entryDy=0;exitX=1;exitY=0.5;exitDx=0;exitDy=0;" edge="1" parent="1" source="cqz4s_2zo4BMZqUi2qew-23" target="cqz4s_2zo4BMZqUi2qew-12">
          <mxGeometry width="50" height="50" relative="1" as="geometry">
            <mxPoint x="400" y="390" as="sourcePoint" />
            <mxPoint x="450" y="340" as="targetPoint" />
          </mxGeometry>
        </mxCell>
      </root>
    </mxGraphModel>
  </diagram>
</mxfile>
